<svg width="45" height="45" viewBox="0 0 45 45" fill="none" xmlns="http://www.w3.org/2000/svg">
<path d="M29.25 9H15.75C12.0221 9 9 12.0221 9 15.75V29.25C9 32.9779 12.0221 36 15.75 36H29.25C32.9779 36 36 32.9779 36 29.25V15.75C36 12.0221 32.9779 9 29.25 9Z" stroke="#BABABA" stroke-width="2.5" stroke-linecap="round" stroke-linejoin="round"/>
<path d="M27.8998 21.6489C28.0664 22.7725 27.8745 23.9199 27.3514 24.9281C26.8282 25.9363 26.0005 26.7538 24.986 27.2645C23.9714 27.7751 22.8217 27.9529 21.7003 27.7724C20.5789 27.592 19.543 27.0625 18.7398 26.2594C17.9367 25.4563 17.4072 24.4203 17.2268 23.2989C17.0463 22.1775 17.2241 21.0278 17.7347 20.0132C18.2454 18.9987 19.063 18.171 20.0711 17.6479C21.0793 17.1247 22.2268 16.9328 23.3503 17.0994C24.4963 17.2694 25.5573 17.8034 26.3766 18.6226C27.1958 19.4419 27.7299 20.5029 27.8998 21.6489Z" stroke="#BABABA" stroke-width="2.5" stroke-linecap="round" stroke-linejoin="round"/>
<path d="M29.9248 15.0752H29.9383" stroke="#BABABA" stroke-width="2.5" stroke-linecap="round" stroke-linejoin="round"/>
</svg>
