<svg width="45" height="45" viewBox="0 0 45 45" fill="none" xmlns="http://www.w3.org/2000/svg">
<path d="M22.7068 33.3001C27.6544 33.3001 25.8902 30.2669 26.2721 29.3947C26.2664 28.7433 26.2607 28.1168 26.2835 27.7359C26.597 27.8215 27.3366 28.1844 28.8642 29.6224C31.2225 31.927 31.8253 33.3001 33.7305 33.3001H37.2374C38.3489 33.3001 38.9274 32.8544 39.2167 32.4804C39.496 32.1188 39.7696 31.484 39.4703 30.4959C38.688 28.1168 34.1252 24.0086 33.8417 23.5752C33.8844 23.4952 33.9528 23.3889 33.9884 23.3337H33.9856C34.8862 22.1814 38.3232 17.1941 38.8291 15.1986C38.8305 15.1959 38.8319 15.1917 38.8319 15.1876C39.1055 14.2768 38.8547 13.6862 38.5954 13.3522C38.205 12.8526 37.5837 12.6001 36.7443 12.6001H33.2375C32.0633 12.6001 31.1727 13.1728 30.7224 14.2175C29.9685 16.0736 27.851 19.8906 26.2636 21.2417C26.2151 19.3276 26.2479 17.8662 26.2736 16.7801C26.3249 14.6618 26.4902 12.6001 24.2202 12.6001H18.7083C17.2862 12.6001 15.9253 14.1043 17.3988 15.89C18.6869 17.4549 17.8619 18.3271 18.1397 22.6686C17.0568 21.5439 15.1302 18.5065 13.7679 14.6246C13.386 13.5744 12.8075 12.6015 11.1787 12.6015H7.67182C6.24968 12.6015 5.40039 13.3522 5.40039 14.6094C5.40039 17.4329 11.8541 33.3001 22.7068 33.3001ZM11.1787 14.6715C11.4879 14.6715 11.5193 14.6715 11.7487 15.3021C13.1438 19.2807 16.273 25.1678 18.5587 25.1678C20.2758 25.1678 20.2758 23.4635 20.2758 22.8218L20.2744 17.713C20.1803 16.0225 19.5448 15.1807 19.1273 14.6701L24.1261 14.6756C24.129 14.6991 24.0976 20.3267 24.1404 21.6902C24.1404 23.6263 25.7278 24.7358 28.2058 22.307C30.8207 19.449 32.629 15.1766 32.7017 15.0027C32.8085 14.7543 32.9012 14.6701 33.2375 14.6701H36.7443H36.7586C36.7572 14.6742 36.7572 14.6784 36.7557 14.6825C36.4351 16.1315 33.2702 20.749 32.2115 22.1828C32.1944 22.2049 32.1787 22.2284 32.163 22.2518C31.6971 22.9887 31.318 23.8029 32.2271 24.9483H32.2286C32.3112 25.0449 32.5264 25.2713 32.8399 25.5859C33.8146 26.5602 37.1576 29.8915 37.454 31.2163C37.2573 31.2467 37.0436 31.2246 33.7305 31.2315C33.0251 31.2315 32.4737 30.2103 30.369 28.1541C28.4766 26.3711 27.2482 25.6425 26.1296 25.6425C23.958 25.6425 24.1161 27.3495 24.1361 29.414C24.1432 31.6524 24.129 30.9444 24.1446 31.0852C24.0178 31.1335 23.6544 31.2301 22.7068 31.2301C13.6653 31.2301 7.77726 17.3321 7.55069 14.6756C7.62907 14.6687 8.70778 14.6729 11.1787 14.6715Z" fill="#BABABA"/>
</svg>
