<svg width="45" height="45" viewBox="0 0 45 45" fill="none" xmlns="http://www.w3.org/2000/svg">
<path d="M38.1677 14.4798C37.987 13.7581 37.619 13.0969 37.1008 12.5629C36.5827 12.0289 35.9327 11.641 35.2166 11.4385C32.6002 10.7998 22.1344 10.7998 22.1344 10.7998C22.1344 10.7998 11.6686 10.7998 9.05212 11.4993C8.33601 11.7018 7.68605 12.0897 7.16789 12.6237C6.64973 13.1577 6.28171 13.8189 6.10101 14.5406C5.62216 17.195 5.38793 19.8877 5.40126 22.5849C5.38419 25.3024 5.61844 28.0156 6.10101 30.69C6.30022 31.3893 6.67648 32.0254 7.19344 32.5368C7.7104 33.0482 8.35058 33.4178 9.05212 33.6097C11.6686 34.3092 22.1344 34.3092 22.1344 34.3092C22.1344 34.3092 32.6002 34.3092 35.2166 33.6097C35.9327 33.4071 36.5827 33.0193 37.1008 32.4853C37.619 31.9513 37.987 31.29 38.1677 30.5683C38.6429 27.9339 38.8771 25.2618 38.8675 22.5849C38.8845 19.8674 38.6503 17.1542 38.1677 14.4798V14.4798Z" stroke="#BABABA" stroke-width="2.5" stroke-linecap="round" stroke-linejoin="round"/>
<path d="M18.7119 27.5579L27.4588 22.5853L18.7119 17.6128V27.5579Z" stroke="#BABABA" stroke-width="2.5" stroke-linecap="round" stroke-linejoin="round"/>
</svg>
